# xmcd
#
# Track frame offsets:
#	150
#	19749
#	35700
#
# Disc length: 616 seconds
#
# Revision: 1
# Processed by: cddbd v1.5.2PL0 Copyright (c) Steve Scherf et al.
# Submitted via: Jack! The Knife
#
DISCID=1e026603
DTITLE=HBK Shawn Michaels - Wreckless intent
DYEAR=2006
DGENRE=Rock
TTITLE0=boulevard of broken dream
TTITLE1=The Game
TTITLE2=HBK Shawn Michaels
EXTD=
EXTT0=Boulevard of broken dream
EXTT1=The Game
EXTT2=
PLAYORDER=
